<svg width="20" height="20" viewBox="0 0 20 20" fill="none" xmlns="http://www.w3.org/2000/svg">
<path d="M16.6667 8.33317C16.6667 12.494 12.0508 16.8273 10.5008 18.1657C10.3564 18.2742 10.1807 18.333 10 18.333C9.81934 18.333 9.64357 18.2742 9.49918 18.1657C7.94918 16.8273 3.33334 12.494 3.33334 8.33317C3.33334 6.56506 4.03572 4.86937 5.28596 3.61913C6.53621 2.36888 8.2319 1.6665 10 1.6665C11.7681 1.6665 13.4638 2.36888 14.7141 3.61913C15.9643 4.86937 16.6667 6.56506 16.6667 8.33317Z" stroke="#0F172B" stroke-width="1.66667" stroke-linecap="round" stroke-linejoin="round"/>
<path d="M10 10.8335C11.3807 10.8335 12.5 9.71421 12.5 8.3335C12.5 6.95278 11.3807 5.8335 10 5.8335C8.61929 5.8335 7.5 6.95278 7.5 8.3335C7.5 9.71421 8.61929 10.8335 10 10.8335Z" stroke="#0F172B" stroke-width="1.66667" stroke-linecap="round" stroke-linejoin="round"/>
</svg>
