<svg width="16" height="16" viewBox="0 0 16 16" fill="none" xmlns="http://www.w3.org/2000/svg">
<g clip-path="url(#clip0_1_1217)">
<path d="M9.6907 14.4572C9.71603 14.5203 9.76006 14.5742 9.81688 14.6116C9.87371 14.6489 9.9406 14.668 10.0086 14.6663C10.0766 14.6646 10.1424 14.6421 10.1973 14.6018C10.2521 14.5616 10.2933 14.5055 10.3154 14.4412L14.6487 1.77454C14.67 1.71547 14.6741 1.65154 14.6604 1.59024C14.6468 1.52894 14.6159 1.4728 14.5715 1.42839C14.5271 1.38398 14.471 1.35314 14.4097 1.33947C14.3484 1.3258 14.2844 1.32987 14.2254 1.35121L1.5587 5.68454C1.49436 5.7066 1.43832 5.74782 1.39808 5.80266C1.35785 5.85749 1.33535 5.92332 1.33361 5.99131C1.33186 6.05931 1.35096 6.1262 1.38834 6.18303C1.42571 6.23985 1.47958 6.28388 1.5427 6.30921L6.82937 8.42921C6.99649 8.49612 7.14833 8.59618 7.27574 8.72336C7.40315 8.85054 7.50349 9.0022 7.5707 9.16921L9.6907 14.4572Z" stroke="white" stroke-width="1.33333" stroke-linecap="round" stroke-linejoin="round"/>
<path d="M14.5693 1.43115L7.276 8.72382" stroke="white" stroke-width="1.33333" stroke-linecap="round" stroke-linejoin="round"/>
</g>
<defs>
<clipPath id="clip0_1_1217">
<rect width="16" height="16" fill="white"/>
</clipPath>
</defs>
</svg>
