<svg width="20" height="20" viewBox="0 0 20 20" fill="none" xmlns="http://www.w3.org/2000/svg">
<path d="M1.66666 16.6665C1.66666 17.1085 1.84225 17.5325 2.15481 17.845C2.46737 18.1576 2.8913 18.3332 3.33332 18.3332H16.6667C17.1087 18.3332 17.5326 18.1576 17.8452 17.845C18.1577 17.5325 18.3333 17.1085 18.3333 16.6665V6.6665L12.5 10.8332V6.6665L6.66666 10.8332V3.33317C6.66666 2.89114 6.49106 2.46722 6.1785 2.15466C5.86594 1.8421 5.44202 1.6665 4.99999 1.6665H3.33332C2.8913 1.6665 2.46737 1.8421 2.15481 2.15466C1.84225 2.46722 1.66666 2.89114 1.66666 3.33317V16.6665Z" stroke="#FF8904" stroke-width="1.66667" stroke-linecap="round" stroke-linejoin="round"/>
<path d="M14.1667 15H15" stroke="#FF8904" stroke-width="1.66667" stroke-linecap="round" stroke-linejoin="round"/>
<path d="M10 15H10.8333" stroke="#FF8904" stroke-width="1.66667" stroke-linecap="round" stroke-linejoin="round"/>
<path d="M5.83334 15H6.66668" stroke="#FF8904" stroke-width="1.66667" stroke-linecap="round" stroke-linejoin="round"/>
</svg>
