<svg width="20" height="20" viewBox="0 0 20 20" fill="none" xmlns="http://www.w3.org/2000/svg">
<path d="M16.6667 10.8335C16.6667 15.0002 13.75 17.0835 10.2833 18.2919C10.1018 18.3534 9.90462 18.3505 9.72501 18.2835C6.25001 17.0835 3.33334 15.0002 3.33334 10.8335V5.00021C3.33334 4.7792 3.42114 4.56724 3.57742 4.41096C3.7337 4.25468 3.94566 4.16688 4.16668 4.16688C5.83334 4.16688 7.91668 3.16688 9.36668 1.90021C9.54322 1.74938 9.7678 1.6665 10 1.6665C10.2322 1.6665 10.4568 1.74938 10.6333 1.90021C12.0917 3.17521 14.1667 4.16688 15.8333 4.16688C16.0544 4.16688 16.2663 4.25468 16.4226 4.41096C16.5789 4.56724 16.6667 4.7792 16.6667 5.00021V10.8335Z" stroke="#FF8904" stroke-width="1.66667" stroke-linecap="round" stroke-linejoin="round"/>
<path d="M7.5 10.0002L9.16667 11.6668L12.5 8.3335" stroke="#FF8904" stroke-width="1.66667" stroke-linecap="round" stroke-linejoin="round"/>
</svg>
