<svg width="28" height="28" viewBox="0 0 28 28" fill="none" xmlns="http://www.w3.org/2000/svg">
<path d="M4.66668 16.3331C4.4459 16.3339 4.22945 16.272 4.04246 16.1546C3.85547 16.0372 3.70562 15.8692 3.61032 15.67C3.51502 15.4709 3.47819 15.2488 3.50409 15.0296C3.53 14.8103 3.61759 14.6029 3.75668 14.4314L15.3067 2.53145C15.3933 2.43144 15.5114 2.36387 15.6415 2.3398C15.7716 2.31574 15.906 2.33663 16.0227 2.39904C16.1394 2.46144 16.2314 2.56166 16.2836 2.68324C16.3358 2.80482 16.3451 2.94054 16.31 3.06812L14.07 10.0914C14.004 10.2682 13.9818 10.4584 14.0054 10.6456C14.029 10.8329 14.0976 11.0116 14.2054 11.1664C14.3133 11.3213 14.4571 11.4477 14.6245 11.5348C14.7919 11.6219 14.978 11.6671 15.1667 11.6664H23.3333C23.5541 11.6657 23.7706 11.7276 23.9576 11.845C24.1446 11.9623 24.2944 12.1304 24.3897 12.3295C24.485 12.5287 24.5218 12.7508 24.4959 12.97C24.47 13.1893 24.3824 13.3967 24.2433 13.5681L12.6933 25.4681C12.6067 25.5681 12.4886 25.6357 12.3585 25.6598C12.2284 25.6838 12.094 25.6629 11.9773 25.6005C11.8607 25.5381 11.7687 25.4379 11.7165 25.3163C11.6642 25.1947 11.6549 25.059 11.69 24.9314L13.93 17.9081C13.9961 17.7313 14.0182 17.5412 13.9947 17.3539C13.9711 17.1667 13.9024 16.988 13.7946 16.8331C13.6867 16.6782 13.5429 16.5518 13.3755 16.4648C13.2081 16.3777 13.0221 16.3325 12.8333 16.3331H4.66668Z" stroke="#F54900" stroke-width="2.33333" stroke-linecap="round" stroke-linejoin="round"/>
</svg>
