<svg width="28" height="28" viewBox="0 0 28 28" fill="none" xmlns="http://www.w3.org/2000/svg">
<path d="M18.0834 8.75008L20.7667 11.4334C20.9848 11.6472 21.278 11.7669 21.5834 11.7669C21.8888 11.7669 22.182 11.6472 22.4 11.4334L24.85 8.98341C25.0638 8.76533 25.1835 8.47213 25.1835 8.16675C25.1835 7.86137 25.0638 7.56817 24.85 7.35008L22.1667 4.66675" stroke="#F54900" stroke-width="2.33333" stroke-linecap="round" stroke-linejoin="round"/>
<path d="M24.5 2.33325L13.3 13.5333" stroke="#F54900" stroke-width="2.33333" stroke-linecap="round" stroke-linejoin="round"/>
<path d="M8.75004 24.5001C12.2939 24.5001 15.1667 21.6272 15.1667 18.0834C15.1667 14.5396 12.2939 11.6667 8.75004 11.6667C5.20621 11.6667 2.33337 14.5396 2.33337 18.0834C2.33337 21.6272 5.20621 24.5001 8.75004 24.5001Z" stroke="#F54900" stroke-width="2.33333" stroke-linecap="round" stroke-linejoin="round"/>
</svg>
