<svg width="28" height="28" viewBox="0 0 28 28" fill="none" xmlns="http://www.w3.org/2000/svg">
<path d="M16.3334 20.9998V6.99984C16.3334 6.381 16.0875 5.78751 15.65 5.34992C15.2124 4.91234 14.6189 4.6665 14 4.6665H4.66671C4.04787 4.6665 3.45438 4.91234 3.01679 5.34992C2.57921 5.78751 2.33337 6.381 2.33337 6.99984V19.8332C2.33337 20.1426 2.45629 20.4393 2.67508 20.6581C2.89388 20.8769 3.19062 20.9998 3.50004 20.9998H5.83337" stroke="#F54900" stroke-width="2.33333" stroke-linecap="round" stroke-linejoin="round"/>
<path d="M17.5 21H10.5" stroke="#F54900" stroke-width="2.33333" stroke-linecap="round" stroke-linejoin="round"/>
<path d="M22.1667 21.0002H24.5C24.8095 21.0002 25.1062 20.8772 25.325 20.6585C25.5438 20.4397 25.6667 20.1429 25.6667 19.8335V15.5752C25.6662 15.3104 25.5757 15.0537 25.41 14.8472L21.35 9.77216C21.2409 9.63552 21.1025 9.52516 20.945 9.44923C20.7875 9.3733 20.6149 9.33375 20.44 9.3335H16.3334" stroke="#F54900" stroke-width="2.33333" stroke-linecap="round" stroke-linejoin="round"/>
<path d="M19.8333 23.3332C21.122 23.3332 22.1667 22.2885 22.1667 20.9998C22.1667 19.7112 21.122 18.6665 19.8333 18.6665C18.5447 18.6665 17.5 19.7112 17.5 20.9998C17.5 22.2885 18.5447 23.3332 19.8333 23.3332Z" stroke="#F54900" stroke-width="2.33333" stroke-linecap="round" stroke-linejoin="round"/>
<path d="M8.16671 23.3332C9.45537 23.3332 10.5 22.2885 10.5 20.9998C10.5 19.7112 9.45537 18.6665 8.16671 18.6665C6.87804 18.6665 5.83337 19.7112 5.83337 20.9998C5.83337 22.2885 6.87804 23.3332 8.16671 23.3332Z" stroke="#F54900" stroke-width="2.33333" stroke-linecap="round" stroke-linejoin="round"/>
</svg>
