<svg width="28" height="28" viewBox="0 0 28 28" fill="none" xmlns="http://www.w3.org/2000/svg">
<path d="M18.3248 24.8417C18.106 25.0605 17.8094 25.1833 17.5 25.1833C17.1906 25.1833 16.8939 25.0605 16.6752 24.8417L14.8248 22.9914C14.6061 22.7726 14.4832 22.4759 14.4832 22.1666C14.4832 21.8572 14.6061 21.5605 14.8248 21.3417L21.3418 14.8247C21.5606 14.606 21.8573 14.4832 22.1667 14.4832C22.476 14.4832 22.7727 14.606 22.9915 14.8247L24.8418 16.6751C25.0605 16.8939 25.1834 17.1905 25.1834 17.4999C25.1834 17.8093 25.0605 18.106 24.8418 18.3247L18.3248 24.8417Z" stroke="#F54900" stroke-width="2.33333" stroke-linecap="round" stroke-linejoin="round"/>
<path d="M21 15.1666L19.3958 7.14693C19.3522 6.92874 19.2471 6.72757 19.0929 6.56716C18.9387 6.40675 18.7418 6.29379 18.5255 6.24159L3.77415 2.36593C3.57982 2.31894 3.37667 2.32268 3.1842 2.3768C2.99173 2.43092 2.8164 2.53359 2.67502 2.67496C2.53365 2.81634 2.43098 2.99167 2.37686 3.18414C2.32275 3.37661 2.319 3.57976 2.36599 3.77409L6.24165 18.5254C6.29385 18.7417 6.40682 18.9386 6.56722 19.0928C6.72763 19.247 6.9288 19.3521 7.14699 19.3958L15.1667 20.9999" stroke="#F54900" stroke-width="2.33333" stroke-linecap="round" stroke-linejoin="round"/>
<path d="M2.68332 2.68335L11.1837 11.1837" stroke="#F54900" stroke-width="2.33333" stroke-linecap="round" stroke-linejoin="round"/>
<path d="M12.8333 15.1667C14.122 15.1667 15.1667 14.122 15.1667 12.8333C15.1667 11.5447 14.122 10.5 12.8333 10.5C11.5447 10.5 10.5 11.5447 10.5 12.8333C10.5 14.122 11.5447 15.1667 12.8333 15.1667Z" stroke="#F54900" stroke-width="2.33333" stroke-linecap="round" stroke-linejoin="round"/>
</svg>
