<svg width="28" height="28" viewBox="0 0 28 28" fill="none" xmlns="http://www.w3.org/2000/svg">
<path d="M23.3333 9.3335H4.66667C4.02233 9.3335 3.5 9.85583 3.5 10.5002V12.8335C3.5 13.4778 4.02233 14.0002 4.66667 14.0002H23.3333C23.9777 14.0002 24.5 13.4778 24.5 12.8335V10.5002C24.5 9.85583 23.9777 9.3335 23.3333 9.3335Z" stroke="#F54900" stroke-width="2.33333" stroke-linecap="round" stroke-linejoin="round"/>
<path d="M14 9.3335V24.5002" stroke="#F54900" stroke-width="2.33333" stroke-linecap="round" stroke-linejoin="round"/>
<path d="M22.1666 14V22.1667C22.1666 22.7855 21.9208 23.379 21.4832 23.8166C21.0456 24.2542 20.4522 24.5 19.8333 24.5H8.16665C7.54781 24.5 6.95432 24.2542 6.51673 23.8166C6.07915 23.379 5.83331 22.7855 5.83331 22.1667V14" stroke="#F54900" stroke-width="2.33333" stroke-linecap="round" stroke-linejoin="round"/>
<path d="M8.74998 9.33335C7.97643 9.33335 7.23457 9.02606 6.68758 8.47908C6.1406 7.9321 5.83331 7.19024 5.83331 6.41669C5.83331 5.64314 6.1406 4.90127 6.68758 4.35429C7.23457 3.80731 7.97643 3.50002 8.74998 3.50002C9.87545 3.48041 10.9783 4.02649 11.9148 5.06704C12.8513 6.10759 13.578 7.59433 14 9.33335C14.422 7.59433 15.1486 6.10759 16.0851 5.06704C17.0216 4.02649 18.1245 3.48041 19.25 3.50002C20.0235 3.50002 20.7654 3.80731 21.3124 4.35429C21.8594 4.90127 22.1666 5.64314 22.1666 6.41669C22.1666 7.19024 21.8594 7.9321 21.3124 8.47908C20.7654 9.02606 20.0235 9.33335 19.25 9.33335" stroke="#F54900" stroke-width="2.33333" stroke-linecap="round" stroke-linejoin="round"/>
</svg>
