<svg width="20" height="20" viewBox="0 0 20 20" fill="none" xmlns="http://www.w3.org/2000/svg">
<path d="M11.6667 15V5.00004C11.6667 4.55801 11.4911 4.13409 11.1785 3.82153C10.8659 3.50897 10.442 3.33337 9.99999 3.33337H3.33332C2.8913 3.33337 2.46737 3.50897 2.15481 3.82153C1.84225 4.13409 1.66666 4.55801 1.66666 5.00004V14.1667C1.66666 14.3877 1.75445 14.5997 1.91073 14.756C2.06701 14.9122 2.27898 15 2.49999 15H4.16666" stroke="#90A1B9" stroke-width="1.66667" stroke-linecap="round" stroke-linejoin="round"/>
<path d="M12.5 15H7.5" stroke="#90A1B9" stroke-width="1.66667" stroke-linecap="round" stroke-linejoin="round"/>
<path d="M15.8333 15H17.5C17.721 15 17.933 14.9122 18.0892 14.7559C18.2455 14.5996 18.3333 14.3876 18.3333 14.1666V11.125C18.333 10.9358 18.2683 10.7525 18.15 10.605L15.25 6.97996C15.1721 6.88236 15.0732 6.80353 14.9607 6.74929C14.8482 6.69506 14.7249 6.6668 14.6 6.66663H11.6667" stroke="#90A1B9" stroke-width="1.66667" stroke-linecap="round" stroke-linejoin="round"/>
<path d="M14.1667 16.6667C15.0871 16.6667 15.8333 15.9205 15.8333 15C15.8333 14.0796 15.0871 13.3334 14.1667 13.3334C13.2462 13.3334 12.5 14.0796 12.5 15C12.5 15.9205 13.2462 16.6667 14.1667 16.6667Z" stroke="#90A1B9" stroke-width="1.66667" stroke-linecap="round" stroke-linejoin="round"/>
<path d="M5.83332 16.6667C6.7538 16.6667 7.49999 15.9205 7.49999 15C7.49999 14.0796 6.7538 13.3334 5.83332 13.3334C4.91285 13.3334 4.16666 14.0796 4.16666 15C4.16666 15.9205 4.91285 16.6667 5.83332 16.6667Z" stroke="#90A1B9" stroke-width="1.66667" stroke-linecap="round" stroke-linejoin="round"/>
</svg>
